<svg width="421" height="49" viewBox="0 0 421 49" fill="none" xmlns="http://www.w3.org/2000/svg">
<path d="M19.6 2.816C25.4027 2.816 29.968 4.52266 33.296 7.936C36.6667 11.3067 38.352 16.192 38.352 22.592V48H33.68V34.816H5.52V48H0.912V22.592C0.912 16.192 2.576 11.3067 5.904 7.936C9.27467 4.52266 13.84 2.816 19.6 2.816ZM33.68 30.72V22.144C33.68 17.152 32.4427 13.3973 29.968 10.88C27.4933 8.32 24.0373 7.04 19.6 7.04C15.1627 7.04 11.7067 8.32 9.232 10.88C6.75733 13.3973 5.52 17.152 5.52 22.144V30.72H33.68ZM65.538 48.32C62.21 48.32 59.2233 47.5947 56.578 46.144C53.9753 44.6933 51.9273 42.6667 50.434 40.064C48.9407 37.4187 48.194 34.4533 48.194 31.168C48.194 27.8827 48.9407 24.9387 50.434 22.336C51.9273 19.7333 53.9753 17.7067 56.578 16.256C59.2233 14.8053 62.21 14.08 65.538 14.08C68.4393 14.08 71.0207 14.656 73.282 15.808C75.586 16.9173 77.3993 18.56 78.722 20.736L75.33 23.04C74.2207 21.376 72.8127 20.1387 71.106 19.328C69.3993 18.4747 67.5433 18.048 65.538 18.048C63.106 18.048 60.9087 18.6027 58.946 19.712C57.026 20.7787 55.5113 22.3147 54.402 24.32C53.3353 26.3253 52.802 28.608 52.802 31.168C52.802 33.7707 53.3353 36.0747 54.402 38.08C55.5113 40.0427 57.026 41.5787 58.946 42.688C60.9087 43.7547 63.106 44.288 65.538 44.288C67.5433 44.288 69.3993 43.8827 71.106 43.072C72.8127 42.2613 74.2207 41.024 75.33 39.36L78.722 41.664C77.3993 43.84 75.586 45.504 73.282 46.656C70.978 47.7653 68.3967 48.32 65.538 48.32ZM101.038 48.32C97.71 48.32 94.7233 47.5947 92.078 46.144C89.4753 44.6933 87.4273 42.6667 85.934 40.064C84.4407 37.4187 83.694 34.4533 83.694 31.168C83.694 27.8827 84.4407 24.9387 85.934 22.336C87.4273 19.7333 89.4753 17.7067 92.078 16.256C94.7233 14.8053 97.71 14.08 101.038 14.08C103.939 14.08 106.521 14.656 108.782 15.808C111.086 16.9173 112.899 18.56 114.222 20.736L110.83 23.04C109.721 21.376 108.313 20.1387 106.606 19.328C104.899 18.4747 103.043 18.048 101.038 18.048C98.606 18.048 96.4087 18.6027 94.446 19.712C92.526 20.7787 91.0113 22.3147 89.902 24.32C88.8353 26.3253 88.302 28.608 88.302 31.168C88.302 33.7707 88.8353 36.0747 89.902 38.08C91.0113 40.0427 92.526 41.5787 94.446 42.688C96.4087 43.7547 98.606 44.288 101.038 44.288C103.043 44.288 104.899 43.8827 106.606 43.072C108.313 42.2613 109.721 41.024 110.83 39.36L114.222 41.664C112.899 43.84 111.086 45.504 108.782 46.656C106.478 47.7653 103.897 48.32 101.038 48.32ZM136.346 48.32C133.103 48.32 130.181 47.5947 127.578 46.144C124.975 44.6507 122.927 42.6027 121.434 40C119.941 37.3973 119.194 34.4533 119.194 31.168C119.194 27.8827 119.941 24.9387 121.434 22.336C122.927 19.7333 124.975 17.7067 127.578 16.256C130.181 14.8053 133.103 14.08 136.346 14.08C139.589 14.08 142.511 14.8053 145.114 16.256C147.717 17.7067 149.743 19.7333 151.194 22.336C152.687 24.9387 153.434 27.8827 153.434 31.168C153.434 34.4533 152.687 37.3973 151.194 40C149.743 42.6027 147.717 44.6507 145.114 46.144C142.511 47.5947 139.589 48.32 136.346 48.32ZM136.346 44.288C138.735 44.288 140.869 43.7547 142.746 42.688C144.666 41.5787 146.159 40.0213 147.226 38.016C148.293 36.0107 148.826 33.728 148.826 31.168C148.826 28.608 148.293 26.3253 147.226 24.32C146.159 22.3147 144.666 20.7787 142.746 19.712C140.869 18.6027 138.735 18.048 136.346 18.048C133.957 18.048 131.802 18.6027 129.882 19.712C128.005 20.7787 126.511 22.3147 125.402 24.32C124.335 26.3253 123.802 28.608 123.802 31.168C123.802 33.728 124.335 36.0107 125.402 38.016C126.511 40.0213 128.005 41.5787 129.882 42.688C131.802 43.7547 133.957 44.288 136.346 44.288ZM193.047 14.336V48H188.695V41.856C187.5 43.904 185.858 45.504 183.767 46.656C181.676 47.7653 179.287 48.32 176.599 48.32C172.204 48.32 168.727 47.104 166.167 44.672C163.65 42.1973 162.391 38.592 162.391 33.856V14.336H166.935V33.408C166.935 36.9493 167.81 39.6373 169.559 41.472C171.308 43.3067 173.804 44.224 177.047 44.224C180.588 44.224 183.383 43.1573 185.431 41.024C187.479 38.848 188.503 35.84 188.503 32V14.336H193.047ZM222.926 14.08C227.15 14.08 230.499 15.3173 232.974 17.792C235.491 20.224 236.75 23.7867 236.75 28.48V48H232.206V28.928C232.206 25.4293 231.331 22.7627 229.582 20.928C227.832 19.0933 225.336 18.176 222.094 18.176C218.467 18.176 215.587 19.264 213.454 21.44C211.363 23.5733 210.318 26.5387 210.318 30.336V48H205.774V14.336H210.126V20.544C211.363 18.496 213.07 16.9173 215.246 15.808C217.464 14.656 220.024 14.08 222.926 14.08ZM265.662 45.952C264.809 46.72 263.763 47.3173 262.526 47.744C261.289 48.128 259.987 48.32 258.622 48.32C255.465 48.32 253.033 47.4667 251.326 45.76C249.619 44.0533 248.766 41.6427 248.766 38.528V6.976H253.31V14.336H263.486V18.176H253.31V38.272C253.31 40.2773 253.801 41.8133 254.782 42.88C255.763 43.904 257.193 44.416 259.07 44.416C261.118 44.416 262.782 43.84 264.062 42.688L265.662 45.952ZM291.609 3.2H296.345V43.904H321.433V48H291.609V3.2ZM328.336 14.336H332.88V48H328.336V14.336ZM330.64 6.976C329.701 6.976 328.912 6.656 328.272 6.016C327.632 5.376 327.312 4.608 327.312 3.712C327.312 2.85867 327.632 2.112 328.272 1.472C328.912 0.831997 329.701 0.511997 330.64 0.511997C331.579 0.511997 332.368 0.831997 333.008 1.472C333.648 2.06933 333.968 2.79466 333.968 3.648C333.968 4.58667 333.648 5.376 333.008 6.016C332.368 6.656 331.579 6.976 330.64 6.976ZM362.676 14.08C366.9 14.08 370.249 15.3173 372.724 17.792C375.241 20.224 376.5 23.7867 376.5 28.48V48H371.956V28.928C371.956 25.4293 371.081 22.7627 369.332 20.928C367.582 19.0933 365.086 18.176 361.844 18.176C358.217 18.176 355.337 19.264 353.204 21.44C351.113 23.5733 350.068 26.5387 350.068 30.336V48H345.524V14.336H349.876V20.544C351.113 18.496 352.82 16.9173 354.996 15.808C357.214 14.656 359.774 14.08 362.676 14.08ZM401.316 31.104L393.38 38.4V48H388.836V0.511997H393.38V32.704L413.476 14.336H419.108L404.708 28.096L420.452 48H414.884L401.316 31.104Z" fill="white"/>
</svg>
